<?xml version="1.0" encoding="utf-8"?>
<!-- Generator: Adobe Illustrator 16.0.0, SVG Export Plug-In . SVG Version: 6.00 Build 0)  -->
<!DOCTYPE svg PUBLIC "-//W3C//DTD SVG 1.1//EN" "http://www.w3.org/Graphics/SVG/1.1/DTD/svg11.dtd">
<svg version="1.1" id="Layer_2" xmlns="http://www.w3.org/2000/svg" xmlns:xlink="http://www.w3.org/1999/xlink" x="0px" y="0px"
	 width="70px" height="70px" viewBox="0 0 70 70" enable-background="new 0 0 70 70" xml:space="preserve">
<g id="Layer_1">
	<path d="M23.68,26.72l-12.91-7.84c-3.94,6.77-5.42,14.98-3.56,23.19l14.41-3.52C20.84,34.36,21.65,30.19,23.68,26.72z"/>
	<path d="M47.32,20.68l7.9-13.01c-6.58-4.03-14.61-5.7-22.7-4.16l3.63,14.88C40.14,17.84,44.05,18.72,47.32,20.68z"/>
	<path d="M34.38,18.73L30.76,3.89C22.63,5.91,16,10.87,11.73,17.35l12.94,7.86C26.97,22.09,30.33,19.73,34.38,18.73z"/>
	<path d="M44.27,51.58l3.45,14.13c7.64-2.29,13.84-7.23,17.84-13.55l-12.54-7.62C51.02,47.72,48,50.25,44.27,51.58z"/>
	<path d="M22.05,40.32L7.67,43.84c2.31,8.07,7.55,14.58,14.27,18.63l7.55-12.43C26.01,47.89,23.3,44.5,22.05,40.32z"/>
	<path d="M31.08,50.9l-7.56,12.46c6.65,3.52,14.57,4.71,22.45,2.82L42.53,52.1C38.53,53.06,34.53,52.55,31.08,50.9z"/>
</g>
</svg>
