<?xml version="1.0" encoding="UTF-8"?>
<svg width="101px" height="99px" viewBox="0 0 101 99" version="1.1" xmlns="http://www.w3.org/2000/svg" xmlns:xlink="http://www.w3.org/1999/xlink">
    <title>logo</title>
    <g id="Page-1" stroke="none" stroke-width="1" fill="none" fill-rule="evenodd">
        <g id="logo" fill="#000000" fill-rule="nonzero">
            <path d="M35.68,24.72 L22.77,16.88 C18.83,23.65 17.35,31.86 19.21,40.07 L33.62,36.55 C32.84,32.36 33.65,28.19 35.68,24.72 Z" id="Path"></path>
            <path d="M59.32,18.68 L67.22,5.67 C60.64,1.64 52.61,-0.03 44.52,1.51 L48.15,16.39 C52.14,15.84 56.05,16.72 59.32,18.68 Z" id="Path"></path>
            <path d="M46.38,16.73 L42.76,1.89 C34.63,3.91 28,8.87 23.73,15.35 L36.67,23.21 C38.97,20.09 42.33,17.73 46.38,16.73 Z" id="Path"></path>
            <path d="M56.27,49.58 L59.72,63.71 C67.36,61.42 73.56,56.48 77.56,50.16 L65.02,42.54 C63.02,45.72 60,48.25 56.27,49.58 Z" id="Path"></path>
            <path d="M34.05,38.32 L19.67,41.84 C21.98,49.91 27.22,56.42 33.94,60.47 L41.49,48.04 C38.01,45.89 35.3,42.5 34.05,38.32 Z" id="Path"></path>
            <path d="M43.08,48.9 L35.52,61.36 C42.17,64.88 50.09,66.07 57.97,64.18 L54.53,50.1 C50.53,51.06 46.53,50.55 43.08,48.9 Z" id="Path"></path>
            <path d="M6.688,95.192 C7.65866667,95.192 8.53866667,95.0213333 9.328,94.68 C10.1173333,94.3386667 10.7786667,93.8426667 11.312,93.192 L11.312,93.192 L9.648,91.656 C8.89066667,92.5413333 7.952,92.984 6.832,92.984 C6.13866667,92.984 5.52,92.832 4.976,92.528 C4.432,92.224 4.008,91.8 3.704,91.256 C3.4,90.712 3.248,90.0933333 3.248,89.4 C3.248,88.7066667 3.4,88.088 3.704,87.544 C4.008,87 4.432,86.576 4.976,86.272 C5.52,85.968 6.13866667,85.816 6.832,85.816 C7.952,85.816 8.89066667,86.2533333 9.648,87.128 L9.648,87.128 L11.312,85.592 C10.7786667,84.952 10.12,84.4613333 9.336,84.12 C8.552,83.7786667 7.67466667,83.608 6.704,83.608 C5.552,83.608 4.51466667,83.856 3.592,84.352 C2.66933333,84.848 1.944,85.536 1.416,86.416 C0.888,87.296 0.624,88.2906667 0.624,89.4 C0.624,90.5093333 0.888,91.504 1.416,92.384 C1.944,93.264 2.66933333,93.952 3.592,94.448 C4.51466667,94.944 5.54666667,95.192 6.688,95.192 Z M19.7784615,95.192 C20.9411282,95.192 21.9864615,94.9413333 22.9144615,94.44 C23.8424615,93.9386667 24.5731282,93.248 25.1064615,92.368 C25.6397949,91.488 25.9064615,90.4986667 25.9064615,89.4 C25.9064615,88.3013333 25.6397949,87.312 25.1064615,86.432 C24.5731282,85.552 23.8424615,84.8613333 22.9144615,84.36 C21.9864615,83.8586667 20.9411282,83.608 19.7784615,83.608 C18.6157949,83.608 17.5677949,83.8586667 16.6344615,84.36 C15.7011282,84.8613333 14.9704615,85.552 14.4424615,86.432 C13.9144615,87.312 13.6504615,88.3013333 13.6504615,89.4 C13.6504615,90.4986667 13.9144615,91.488 14.4424615,92.368 C14.9704615,93.248 15.7011282,93.9386667 16.6344615,94.44 C17.5677949,94.9413333 18.6157949,95.192 19.7784615,95.192 Z M19.7784615,92.984 C19.1171282,92.984 18.5197949,92.832 17.9864615,92.528 C17.4531282,92.224 17.0344615,91.8 16.7304615,91.256 C16.4264615,90.712 16.2744615,90.0933333 16.2744615,89.4 C16.2744615,88.7066667 16.4264615,88.088 16.7304615,87.544 C17.0344615,87 17.4531282,86.576 17.9864615,86.272 C18.5197949,85.968 19.1171282,85.816 19.7784615,85.816 C20.4397949,85.816 21.0371282,85.968 21.5704615,86.272 C22.1037949,86.576 22.5224615,87 22.8264615,87.544 C23.1304615,88.088 23.2824615,88.7066667 23.2824615,89.4 C23.2824615,90.0933333 23.1304615,90.712 22.8264615,91.256 C22.5224615,91.8 22.1037949,92.224 21.5704615,92.528 C21.0371282,92.832 20.4397949,92.984 19.7784615,92.984 Z M31.9889231,95 L31.9889231,83.8 L29.3969231,83.8 L29.3969231,95 L31.9889231,95 Z M38.7433846,95 L38.7433846,88.2 L44.3273846,95 L46.4553846,95 L46.4553846,83.8 L43.8953846,83.8 L43.8953846,90.6 L38.3273846,83.8 L36.1833846,83.8 L36.1833846,95 L38.7433846,95 Z M54.3298462,95.192 C55.3538462,95.192 56.2231795,95.0373333 56.9378462,94.728 C57.6525128,94.4186667 58.1885128,94 58.5458462,93.472 C58.9031795,92.944 59.0818462,92.36 59.0818462,91.72 C59.0818462,90.9733333 58.8871795,90.3813333 58.4978462,89.944 C58.1085128,89.5066667 57.6418462,89.1866667 57.0978462,88.984 C56.5538462,88.7813333 55.8551795,88.5786667 55.0018462,88.376 C54.1805128,88.1946667 53.5698462,88.0106667 53.1698462,87.824 C52.7698462,87.6373333 52.5698462,87.352 52.5698462,86.968 C52.5698462,86.584 52.7431795,86.2746667 53.0898462,86.04 C53.4365128,85.8053333 53.9725128,85.688 54.6978462,85.688 C55.7325128,85.688 56.7671795,85.9813333 57.8018462,86.568 L57.8018462,86.568 L58.6018462,84.6 C58.0898462,84.28 57.4925128,84.0346667 56.8098462,83.864 C56.1271795,83.6933333 55.4285128,83.608 54.7138462,83.608 C53.6898462,83.608 52.8231795,83.7626667 52.1138462,84.072 C51.4045128,84.3813333 50.8738462,84.8 50.5218462,85.328 C50.1698462,85.856 49.9938462,86.4453333 49.9938462,87.096 C49.9938462,87.8426667 50.1885128,88.44 50.5778462,88.888 C50.9671795,89.336 51.4338462,89.6613333 51.9778462,89.864 C52.5218462,90.0666667 53.2205128,90.2693333 54.0738462,90.472 C54.6285128,90.6 55.0685128,90.7173333 55.3938462,90.824 C55.7191795,90.9306667 55.9858462,91.072 56.1938462,91.248 C56.4018462,91.424 56.5058462,91.6453333 56.5058462,91.912 C56.5058462,92.2746667 56.3298462,92.5653333 55.9778462,92.784 C55.6258462,93.0026667 55.0818462,93.112 54.3458462,93.112 C53.6845128,93.112 53.0231795,93.0053333 52.3618462,92.792 C51.7005128,92.5786667 51.1298462,92.296 50.6498462,91.944 L50.6498462,91.944 L49.7698462,93.896 C50.2711795,94.28 50.9351795,94.592 51.7618462,94.832 C52.5885128,95.072 53.4445128,95.192 54.3298462,95.192 Z M63.5803077,95 L64.5723077,92.6 L69.7723077,92.6 L70.7643077,95 L73.4843077,95 L68.4763077,83.8 L65.9163077,83.8 L60.9243077,95 L63.5803077,95 Z M68.9563077,90.632 L65.4043077,90.632 L67.1803077,86.344 L68.9563077,90.632 Z M78.7827692,95 L78.7827692,90.92 L83.9667692,90.92 L83.9667692,88.84 L78.7827692,88.84 L78.7827692,85.88 L84.6547692,85.88 L84.6547692,83.8 L76.1907692,83.8 L76.1907692,95 L78.7827692,95 Z M92.9292308,95.192 C94.5292308,95.192 95.7745641,94.7493333 96.6652308,93.864 C97.5558974,92.9786667 98.0012308,91.7146667 98.0012308,90.072 L98.0012308,90.072 L98.0012308,83.8 L95.4412308,83.8 L95.4412308,89.976 C95.4412308,91.0106667 95.2278974,91.7706667 94.8012308,92.256 C94.3745641,92.7413333 93.7558974,92.984 92.9452308,92.984 C91.2812308,92.984 90.4492308,91.9813333 90.4492308,89.976 L90.4492308,89.976 L90.4492308,83.8 L87.8572308,83.8 L87.8572308,90.072 C87.8572308,91.7146667 88.3025641,92.9786667 89.1932308,93.864 C90.0838974,94.7493333 91.3292308,95.192 92.9292308,95.192 Z" id="COINSAFU"></path>
        </g>
    </g>
</svg>