<?xml version="1.0" encoding="utf-8"?>
<!-- Generator: Adobe Illustrator 16.0.0, SVG Export Plug-In . SVG Version: 6.00 Build 0)  -->
<!DOCTYPE svg PUBLIC "-//W3C//DTD SVG 1.1//EN" "http://www.w3.org/Graphics/SVG/1.1/DTD/svg11.dtd">
<svg version="1.1" id="Capa_1" xmlns="http://www.w3.org/2000/svg" xmlns:xlink="http://www.w3.org/1999/xlink" x="0px" y="0px"
	 width="512px" height="512px" viewBox="0 0 512 512" enable-background="new 0 0 512 512" xml:space="preserve">
<path d="M256,432.29c-0.55,0-1.08,0-1.61-0.01c-35.69-0.42-69.21-14.67-94.39-40.12c-25.2-25.47-39.08-59.18-39.08-94.92
	c0-24.79,6.78-49.03,19.6-70.09l8.19-13.46l6.68,14.26c1.05,2.14,10.5,20.53,25.54,20.53c0,0,0,0,0,0c2.48,0,5-0.51,7.48-1.5
	c1.91-0.76,8.31-3.71,10.37-9.67c1.44-4.18,0.45-9.28-2.94-15.14c-7.28-12.59-9.04-27.77-4.84-41.65
	c4.49-14.87,15.25-27.16,30.28-34.61c25.97-12.86,26.11-47.45,26.1-48.92l-0.29-15.63l13.22,8.25c0.16,0.1,13.7,8.58,24.8,22.45
	c15.48,19.36,19.21,39.95,10.79,59.54c-6.54,15.2-8.14,30.61-4.09,39.26c1.73,3.7,4.48,6.07,8.41,7.25c1.42,0.43,2.87,0.64,4.3,0.64
	c14.11,0,22.63-20.4,23.55-22.73l4.22-10.88l9.04,7.33c31.67,25.79,49.8,63.97,49.75,104.75C391.07,371.7,330.48,432.29,256,432.29z
	 M216,343.11c-3.31,9.56-4.93,18.74-4.83,27.29v0.11c0,24.74,20.13,44.87,44.88,44.87c11.99,0,23.25-4.67,31.72-13.14
	c8.48-8.46,13.16-19.72,13.16-31.71c0.04-8.26-1.98-15.9-5.55-21c-5.16-7.38-10.76-15.54-16.69-25.24
	c-5.14-8.38-8.79-17.49-11.17-27.84l-0.68-2.97l-2.45,1.8c-10.03,7.37-22.06,20.7-22.47,42.31l-0.22,11.05l-25.08-7.33L216,343.11z
	 M147.24,251.04c-6.22,14.66-9.37,30.2-9.37,46.19c0,42.26,22.87,81.59,59.7,102.65l5.59,3.2l-2.8-5.8
	c-4.04-8.38-6.09-17.36-6.1-26.69c-0.15-13.52,3.1-27.95,9.66-42.92l2.98-6.8l19.09,5.58l0.43-2.13
	c2.96-14.49,10.24-27.09,21.66-37.45c10.81-9.81,21.23-13.9,22.38-14.34l10.29-3.9l1.12,10.94c1.43,14.14,5.1,25.87,11.21,35.87
	c5.38,8.77,10.34,16.09,16.14,24.39c5.6,8.01,8.66,18.91,8.6,30.69c0,9.36-2.04,18.34-6.05,26.71l-2.78,5.79l5.58-3.19
	c36.79-21.05,59.64-60.36,59.62-102.59c0-31.21-12.03-60.62-33.86-82.8l-1.74-1.76l-1.36,2.07c-1.51,2.29-2.98,4.29-4.5,6.11
	c-8.1,9.74-17.78,14.88-28,14.88c-3.1,0-6.26-0.48-9.4-1.42c-8.55-2.56-15.08-8.19-18.86-16.29c-6.17-13.21-4.72-33.06,3.89-53.08
	c5.83-13.57,3.09-27.67-8.14-41.91c-2.02-2.58-4.37-5.19-6.99-7.77l-2.53-2.49l-0.82,3.46c-3.47,14.7-12.03,34.41-33.08,44.84
	c-10.81,5.35-18.48,14-21.6,24.35c-2.88,9.57-1.71,19.62,3.3,28.3c7.42,12.85,6.43,22.92,4.28,29.11
	c-3.01,8.71-10.32,15.94-20.06,19.85c-4.65,1.87-9.36,2.82-14.01,2.82c-9.68,0-19.12-4.16-27.3-12.04c-1.03-1-2-2-2.86-2.96
	l-2.1-2.33L147.24,251.04z"/>
</svg>
