<?xml version="1.0" encoding="utf-8"?>
<!-- Generator: Adobe Illustrator 16.0.0, SVG Export Plug-In . SVG Version: 6.00 Build 0)  -->
<!DOCTYPE svg PUBLIC "-//W3C//DTD SVG 1.1//EN" "http://www.w3.org/Graphics/SVG/1.1/DTD/svg11.dtd">
<svg version="1.1" id="Capa_1" xmlns="http://www.w3.org/2000/svg" xmlns:xlink="http://www.w3.org/1999/xlink" x="0px" y="0px"
	 width="512px" height="512px" viewBox="0 0 512 512" enable-background="new 0 0 512 512" xml:space="preserve">
<path d="M342.58,190.92l-11.17-9.06l-5.2,13.42c-0.1,0.25-10.09,25.51-25.42,20.91c-3.4-1.02-5.67-2.98-7.17-6.18
	c-3.82-8.16-2.2-22.92,4.12-37.62c8.74-20.32,4.91-41.61-11.06-61.58c-11.24-14.05-24.72-22.55-25.3-22.9l-16.35-10.2l0.36,19.27
	c0,0.35,0.36,34.58-24.99,47.13c-15.53,7.69-26.65,20.4-31.31,35.82c-4.36,14.41-2.53,30.17,5.02,43.23
	c3.09,5.35,4.02,9.88,2.78,13.49c-1.77,5.14-7.51,7.79-9.22,8.47c-18.13,7.28-29.98-17.02-30.47-18.02l-8.26-17.64l-10.13,16.65
	c-13.01,21.37-19.89,45.97-19.89,71.13c0,75.03,60.6,136.16,135.43,137.04c0.55,0.01,1.09,0.01,1.65,0.01l0,0l0,0
	c75.58,0,137.07-61.48,137.07-137.07C393.12,255.84,374.7,217.08,342.58,190.92z M213.17,370.5v-0.13
	c-0.1-8.32,1.48-17.25,4.72-26.61l25.76,7.53l0.27-13.67c0.39-20.93,12.2-33.79,21.65-40.74c2.42,10.54,6.19,19.92,11.41,28.44
	c5.94,9.7,11.57,17.92,16.76,25.34c3.34,4.78,5.23,12.01,5.19,19.8v0.06c0,11.45-4.46,22.21-12.57,30.3
	c-8.09,8.09-18.85,12.55-30.31,12.55l0,0C232.4,413.37,213.17,394.15,213.17,370.5L213.17,370.5z M313.58,398.09
	c4.08-8.5,6.25-17.86,6.25-27.56c0.06-12.19-3.12-23.5-8.96-31.85c-5.79-8.29-10.73-15.58-16.07-24.29
	c-5.95-9.73-9.53-21.19-10.93-35.03l-1.38-13.53l-12.72,4.82c-1.19,0.45-11.96,4.7-23.02,14.73
	c-11.71,10.62-19.27,23.77-22.28,38.53l-18.69-5.46l-3.69,8.41c-6.68,15.24-9.98,29.94-9.83,43.72c0.01,9.87,2.28,19.22,6.3,27.56
	c-35.03-20.03-58.69-57.75-58.69-100.91c0-15.7,3.16-31.14,9.21-45.41c0.92,1.02,1.92,2.05,2.96,3.06
	c12.8,12.33,28.23,15.75,43.44,9.64c10.27-4.12,18-11.8,21.2-21.05c2.28-6.58,3.35-17.28-4.44-30.76
	c-4.74-8.21-5.84-17.69-3.12-26.72c2.96-9.82,10.27-18.03,20.57-23.13c21.66-10.73,30.53-30.89,34.14-46.17
	c2.28,2.24,4.63,4.78,6.82,7.58c10.75,13.63,13.39,27.03,7.87,39.88c-8.82,20.53-10.27,40.99-3.86,54.72
	c4.03,8.62,10.97,14.63,20.1,17.36c14.34,4.3,28.37-0.7,39.51-14.1c1.75-2.1,3.28-4.24,4.63-6.29
	c21.29,21.63,33.29,50.66,33.29,81.4C372.21,340.34,348.57,378.07,313.58,398.09L313.58,398.09z"/>
</svg>
