<?xml version="1.0" encoding="utf-8"?>
<!-- Generator: Adobe Illustrator 16.0.0, SVG Export Plug-In . SVG Version: 6.00 Build 0)  -->
<!DOCTYPE svg PUBLIC "-//W3C//DTD SVG 1.1//EN" "http://www.w3.org/Graphics/SVG/1.1/DTD/svg11.dtd">
<svg version="1.1" id="Layer_1" xmlns="http://www.w3.org/2000/svg" xmlns:xlink="http://www.w3.org/1999/xlink" x="0px" y="0px"
	 width="512px" height="512px" viewBox="0 0 512 512" enable-background="new 0 0 512 512" xml:space="preserve">
<title>REAR SHOCK</title>
<path d="M480.75,31.27c-18.02-18.06-47.26-18.1-65.32-0.08c-7.85,7.83-12.62,18.21-13.44,29.26l-7.57-7.57
	c-15.22-15.18-39.86-15.18-55.08,0L220.57,171.65c-3.16,3.16-3.16,8.28,0,11.44c0,0,0,0,0,0l18.12,18.12L123.2,316.64
	c-3.16,3.16-3.16,8.28,0,11.44c0,0,0,0,0,0l43.29,43.29l-43.56,43.56l-4.53-4.53l0,0L97.09,389.1l28.98-28.98
	c3.1-3.21,3.01-8.33-0.2-11.44c-3.14-3.03-8.1-3.03-11.24,0l-34.7,34.7c-3.16,3.16-3.16,8.27,0,11.43c0,0,0,0,0,0.01l4.53,4.53
	l-4.43,4.43c-8.17,8.68-18.89,14.54-30.6,16.75c-20.26,2.95-34.29,21.77-31.34,42.02c0.73,4.98,2.46,9.76,5.09,14.05
	c6,9.72,16.12,16.16,27.46,17.47c19.24,2.2,36.92-10.79,40.57-29.8c1.82-11.37,7.06-21.91,15.01-30.23l6.44-6.47l4.53,4.53
	c3.16,3.16,8.28,3.16,11.44,0c0,0,0,0,0,0l49.28-49.26l6.02,6.02c3.16,3.16,8.28,3.16,11.44,0c0,0,0,0,0,0l79.05-79.08
	c3.16-3.16,3.16-8.28,0-11.44c-3.16-3.16-8.28-3.16-11.44,0l-73.34,73.34l-49.3-49.31L250.1,212.64l78.83,78.81
	c3.15,3.16,8.27,3.16,11.43,0.01c0,0,0.01-0.01,0.01-0.01l118.77-118.78c15.18-15.22,15.18-39.85,0-55.08l-32.36-32.35
	c-11.74-11.75-11.74-30.79,0.01-42.54c11.75-11.74,30.79-11.74,42.54,0.01c11.74,11.74,11.74,30.78,0,42.52
	c-3.16,3.16-3.16,8.28,0,11.44c3.16,3.16,8.28,3.16,11.44,0c18.06-18.06,18.07-47.34,0-65.41c0,0,0,0,0,0L480.75,31.27z
	 M94.81,422.56c-10.22,10.64-17,24.1-19.47,38.64c-0.78,4.08-2.77,7.83-5.71,10.77c-8.19,8.18-21.46,8.17-29.64-0.01
	c-1.19-1.19-2.23-2.52-3.1-3.96c-5.96-9.87-2.79-22.71,7.08-28.67c2.38-1.44,5.02-2.38,7.77-2.79c15.2-2.62,29.14-10.1,39.73-21.32
	l4.43-4.43l5.35,5.35L94.81,422.56z M447.71,161.24L334.65,274.29l-96.92-96.92L350.78,64.32c9.01-8.61,23.19-8.61,32.2,0
	l32.36,32.36v0.03l0,0l32.35,32.36C456.55,137.95,456.56,152.33,447.71,161.24z"/>
<path d="M283.62,275.85l-2.33,2.34c-3.09,2.99-3.17,7.91-0.19,11.01c2.99,3.09,7.92,3.17,11.01,0.19c0.07-0.06,0.13-0.13,0.19-0.19
	l2.33-2.33c3.04-3.04,3.04-7.97,0-11.01C291.59,272.8,286.66,272.8,283.62,275.85L283.62,275.85z"/>
<path d="M62.68,439.21c-5.85,0-10.59,4.74-10.59,10.59c0,5.85,4.74,10.58,10.59,10.58c5.85,0,10.59-4.74,10.59-10.58l0,0
	C73.26,443.95,68.52,439.21,62.68,439.21z M62.68,454.78c-2.75,0-4.98-2.23-4.98-4.98s2.23-4.98,4.98-4.98
	c2.75,0,4.98,2.23,4.98,4.98S65.43,454.78,62.68,454.78L62.68,454.78z"/>
<path d="M431.33,61.77c-5.22,5.23-5.21,13.7,0.02,18.92c5.23,5.22,13.7,5.21,18.91-0.01c2.5-2.5,3.91-5.9,3.91-9.44
	c0.01-3.55-1.4-6.96-3.92-9.46C445.02,56.56,436.56,56.56,431.33,61.77z M442.34,72.78c-0.84,0.86-2.21,0.88-3.07,0.04
	c-0.01-0.01-0.03-0.03-0.04-0.04c-0.85-0.86-0.85-2.25,0.01-3.1c0.86-0.85,2.25-0.85,3.1,0.01
	C443.18,70.55,443.18,71.93,442.34,72.78z"/>
</svg>
