<?xml version="1.0" encoding="utf-8"?>
<!-- Generator: Adobe Illustrator 16.0.0, SVG Export Plug-In . SVG Version: 6.00 Build 0)  -->
<!DOCTYPE svg PUBLIC "-//W3C//DTD SVG 1.1//EN" "http://www.w3.org/Graphics/SVG/1.1/DTD/svg11.dtd">
<svg version="1.1" id="Capa_1" xmlns="http://www.w3.org/2000/svg" xmlns:xlink="http://www.w3.org/1999/xlink" x="0px" y="0px"
	 width="70px" height="70px" viewBox="0 0 70 70" enable-background="new 0 0 70 70" xml:space="preserve">
<g>
	<g>
		<g>
			<path d="M63.48,13.16v-5.7c0-0.01-0.01-0.02-0.01-0.03c0-0.11-0.02-0.22-0.07-0.33l0,0c0-0.01-0.01-0.02-0.01-0.02
				c-0.04-0.09-0.1-0.18-0.17-0.25c-0.02-0.02-0.05-0.04-0.07-0.07c-0.06-0.05-0.13-0.1-0.2-0.13c-0.03-0.02-0.06-0.03-0.09-0.04
				c-0.1-0.04-0.22-0.07-0.33-0.07H32.15c-0.25,0-0.49,0.1-0.67,0.28L6.8,31.48l0,0c-0.08,0.08-0.14,0.17-0.18,0.27
				c-0.04,0.11-0.07,0.22-0.08,0.34c0,0.02-0.01,0.04-0.01,0.06v5.7c0,0.52,0.43,0.95,0.95,0.95h7.12c2.36,0,4.27,1.92,4.27,4.27
				v1.03L6.8,56.17c-0.18,0.18-0.28,0.42-0.28,0.67v5.7c0,0.52,0.43,0.95,0.95,0.95h30.38c0.13,0,0.25-0.03,0.37-0.08
				c0.01,0,0.02-0.02,0.03-0.02c0.1-0.05,0.19-0.11,0.27-0.19l0.01-0.01l18.97-19.92l5.7-5.7c0.18-0.18,0.28-0.42,0.28-0.67v-5.7
				c0-0.01-0.01-0.02-0.01-0.03c0-0.11-0.02-0.22-0.07-0.33l0,0c0-0.01-0.01-0.02-0.01-0.02c-0.09-0.19-0.25-0.35-0.44-0.45
				c-0.03-0.02-0.06-0.03-0.09-0.04c-0.1-0.04-0.22-0.06-0.33-0.07h-7.12c-0.08,0.01-0.16,0.02-0.24,0.05
				c-0.08-0.03-0.16-0.04-0.24-0.05c-2.21-0.01-4.06-1.71-4.24-3.92l12.5-12.5C63.38,13.66,63.48,13.42,63.48,13.16z M32.54,8.42
				h27.7L37.46,31.2H9.76L32.54,8.42z M18.86,46.79v4.83c0,2.36-1.91,4.27-4.27,4.27H9.76L18.86,46.79z M36.9,61.58H8.42v-3.8h6.17
				c3.41,0,6.17-2.76,6.17-6.17v-8.54c0-3.41-2.76-6.17-6.17-6.17H8.42v-3.8H36.9v3.8h-6.17c-3.41,0-6.17,2.76-6.17,6.17v8.54
				c0,3.41,2.76,6.17,6.17,6.17h6.17V61.58z M61.58,36.5l-5.43,5.44L38.8,60.16v-2.94l18.71-19.65l4.08-4.08V36.5L61.58,36.5z
				 M54.94,32.15c0.08-0.01,0.16-0.02,0.24-0.05c0.08,0.03,0.16,0.04,0.24,0.05h4.83l-4.09,4.09L37.44,55.89h-6.71
				c-2.36,0-4.27-1.91-4.27-4.27v-8.54c0-2.36,1.91-4.27,4.27-4.27h7.12c0.25,0,0.49-0.1,0.67-0.28l10.57-10.57
				C49.94,30.46,52.29,32.15,54.94,32.15z M61.58,12.77L49.04,25.31l0,0L38.8,35.56v-3.01L61.58,9.76V12.77z"/>
			<path d="M30.62,51.16c-0.36-0.15-0.77-0.07-1.04,0.21c-0.17,0.18-0.27,0.42-0.28,0.67c0,0.52,0.43,0.95,0.95,0.95
				s0.95-0.42,0.95-0.95C31.2,51.66,30.97,51.31,30.62,51.16z"/>
			<path d="M34.27,47.14c-0.33-0.08-0.68,0.02-0.91,0.27l0,0l-0.95,1c-0.36,0.38-0.35,0.98,0.03,1.34s0.98,0.35,1.34-0.03l0.95-1
				c0.23-0.25,0.32-0.6,0.22-0.92C34.87,47.47,34.6,47.22,34.27,47.14z"/>
			<path d="M37.16,43.43l-0.95,1c-0.36,0.38-0.35,0.98,0.03,1.34c0.38,0.36,0.98,0.35,1.34-0.03l0.95-0.99
				c0.36-0.38,0.35-0.98-0.03-1.34S37.52,43.05,37.16,43.43z"/>
			<path d="M40.96,39.45l-0.95,0.99c-0.26,0.28-0.33,0.68-0.19,1.03c0.15,0.35,0.49,0.58,0.87,0.58c0.26,0,0.51-0.11,0.69-0.29
				l0.95-1c0.36-0.38,0.35-0.98-0.03-1.34C41.92,39.06,41.32,39.07,40.96,39.45z"/>
			<path d="M45.67,35.21c-0.33-0.08-0.68,0.02-0.91,0.27l-0.95,0.99c-0.26,0.27-0.34,0.68-0.19,1.03s0.49,0.58,0.87,0.58
				c0.26,0,0.51-0.11,0.69-0.29l0.95-0.99c0.24-0.25,0.32-0.6,0.23-0.92C46.26,35.54,46,35.29,45.67,35.21z"/>
			<path d="M47.93,32.27c-0.36,0.15-0.59,0.5-0.59,0.88c0,0.25,0.1,0.49,0.28,0.67c0.18,0.18,0.42,0.28,0.67,0.28
				c0.25,0,0.5-0.1,0.67-0.28c0.18-0.17,0.28-0.42,0.27-0.67c0-0.25-0.1-0.49-0.27-0.67C48.69,32.2,48.28,32.12,47.93,32.27z"/>
		</g>
	</g>
</g>
</svg>
