<?xml version="1.0" encoding="utf-8"?>
<!-- Generator: Adobe Illustrator 16.0.0, SVG Export Plug-In . SVG Version: 6.00 Build 0)  -->
<!DOCTYPE svg PUBLIC "-//W3C//DTD SVG 1.1//EN" "http://www.w3.org/Graphics/SVG/1.1/DTD/svg11.dtd">
<svg version="1.1" id="Capa_1" xmlns="http://www.w3.org/2000/svg" xmlns:xlink="http://www.w3.org/1999/xlink" x="0px" y="0px"
	 width="512px" height="512px" viewBox="0 0 512 512" enable-background="new 0 0 512 512" xml:space="preserve">
<path d="M232.44,428.49c-72.71,0-131.86-59.15-131.86-131.86c0-30.89,10.91-60.94,30.73-84.61L232.44,84.72l59.18,74.51l28.33-35.67
	l70.14,88.31c13.76,16.45,21.33,37.28,21.33,58.7c0,38.7-24.55,73.37-61.09,86.26l-0.74,0.26l-0.37,0.69
	C326.31,401.4,281.56,428.49,232.44,428.49z M143.99,222.52c-17.38,20.7-26.96,47.03-26.96,74.12
	c0,63.64,51.77,115.41,115.41,115.41c36.38,0,71.07-17.54,92.8-46.92l2.49-3.36l-4.18,0.17c-1.25,0.05-2.46,0.08-3.6,0.08
	c-50.43,0-91.46-41.03-91.46-91.46c0-21.41,7.56-42.24,21.29-58.66l31.34-39.45l-48.69-61.29L143.99,222.52z M262.44,222.43
	c-11.27,13.43-17.49,30.54-17.49,48.14c0,41.36,33.65,75.01,75.01,75.01s75.01-33.65,75.01-75.01c0-17.6-6.22-34.72-17.53-48.19
	l-57.48-72.36L262.44,222.43z"/>
</svg>
