<?xml version="1.0" encoding="utf-8"?>
<!-- Generator: Adobe Illustrator 16.0.0, SVG Export Plug-In . SVG Version: 6.00 Build 0)  -->
<!DOCTYPE svg PUBLIC "-//W3C//DTD SVG 1.1//EN" "http://www.w3.org/Graphics/SVG/1.1/DTD/svg11.dtd">
<svg version="1.1" id="Capa_1" xmlns="http://www.w3.org/2000/svg" xmlns:xlink="http://www.w3.org/1999/xlink" x="0px" y="0px"
	 width="512px" height="512px" viewBox="0 0 512 512" enable-background="new 0 0 512 512" xml:space="preserve">
<path d="M413.42,270.56c0-21.89-7.73-43.17-21.76-59.94l-71.71-90.28l-28.33,35.67L232.44,81.5L129.78,210.74
	c-20.12,24.03-31.2,54.52-31.2,85.89c0,73.81,60.05,133.86,133.86,133.86c51.42,0,96.15-29.14,118.56-71.78
	C387.32,345.89,413.42,311.22,413.42,270.56L413.42,270.56z M232.44,410.05c-62.53,0-113.41-50.88-113.41-113.41
	c0-26.62,9.41-52.49,26.5-72.85l0.09-0.11l86.82-109.3l46.13,58.07l-30.32,38.17c-14.03,16.77-21.76,38.05-21.76,59.94
	c0,51.54,41.93,93.46,93.46,93.46c1.23,0,2.46-0.03,3.68-0.08C302.96,391.89,269.79,410.05,232.44,410.05L232.44,410.05z
	 M319.96,343.58c-40.26,0-73.01-32.75-73.01-73.01c0-17.14,6.06-33.79,17.06-46.9l55.95-70.43l55.78,70.22l0.17,0.21
	c11,13.11,17.06,29.77,17.06,46.9C392.97,310.82,360.22,343.58,319.96,343.58L319.96,343.58z"/>
</svg>
